<svg width="135" height="24" viewBox="0 0 135 24" fill="none" xmlns="http://www.w3.org/2000/svg">
<path fill-rule="evenodd" clip-rule="evenodd" d="M22.9758 12.9827H16.8273C16.0221 12.9827 15.2901 13.5683 15.1071 14.3734L13.6798 20.8513C13.4236 21.9493 14.485 23.0107 15.5829 23.0107H34.0285C35.5657 23.0107 36.9198 21.8761 37.1394 20.339L38.6399 11.1527L39.8111 3.94285C40.1405 2.00313 38.6399 0.283005 36.7002 0.283005H18.95C18.0716 0.283005 17.3396 0.905179 17.1932 1.74694L17.0468 2.7351C16.8639 3.79645 17.7056 4.78461 18.8036 4.78461H23.8542C25.9769 4.78461 27.5872 6.72433 27.1846 8.77384L26.965 10.5306C26.6722 12.1409 25.4645 13.0193 23.8176 13.0193" fill="blue"/>
<path fill-rule="evenodd" clip-rule="evenodd" d="M8.95858 19.2776H5.88431C5.15234 19.2776 4.49356 19.7168 4.31057 20.3024L4.01778 21.2905C3.76159 22.1323 4.53016 22.9741 5.59152 22.9741H8.66579C9.39776 22.9741 10.0565 22.5349 10.2395 21.9493L10.5323 20.9611C10.7885 20.0828 10.0199 19.2776 8.95858 19.2776Z" fill="blue"/>
<path fill-rule="evenodd" clip-rule="evenodd" d="M10.1297 13.0193H2.48065C1.74868 13.0193 1.0899 13.5316 0.906912 14.227L0.614123 15.3616C0.357933 16.3497 1.1265 17.3013 2.18786 17.3013H9.83694C10.5689 17.3013 11.2277 16.7889 11.4107 16.0935L11.7035 14.959C11.9597 14.0074 11.1911 13.0193 10.1297 13.0193Z" fill="blue"/>
<path fill-rule="evenodd" clip-rule="evenodd" d="M6.0673 4.63821H11.9597C12.6916 4.63821 13.3504 4.12583 13.5334 3.39386L13.8262 2.22271C14.0824 1.19795 13.3138 0.209793 12.2524 0.209793H6.36008C5.62811 0.209793 4.96934 0.722169 4.78635 1.45414L4.49356 2.62529C4.27397 3.65005 5.04254 4.63821 6.0673 4.63821Z" fill="blue"/>
<path fill-rule="evenodd" clip-rule="evenodd" d="M6.76267 7.93207L6.46988 9.10323C6.21369 10.128 6.98226 11.1161 8.04362 11.1161H19.5721C20.3041 11.1161 20.9629 10.6038 21.1459 9.87179L21.4387 8.70064C21.6949 7.67589 20.9263 6.68773 19.8649 6.68773H8.33641C7.60444 6.68773 6.94566 7.20011 6.76267 7.93207Z" fill="blue"/>
<path d="M46.472 0.100006H54.2675C59.7207 0.100006 62.8681 2.91808 62.8681 7.67588C62.8681 12.5435 59.6841 15.325 54.2675 15.325H51.3762V22.8643H46.472V0.100006ZM54.1577 11.3357C56.4634 11.3357 57.8541 10.0182 57.8541 7.74909C57.8541 5.47998 56.4634 4.16244 54.1577 4.16244H51.3396V11.3723H54.1577V11.3357Z" fill="blue"/>
<path d="M75.6776 17.9967H66.7842L65.2104 22.8643H60.0867L68.2115 0.100006H74.6528L82.7777 22.8643H77.2879L75.6776 17.9967ZM74.4699 14.3734L71.3224 4.74801H71.0662L67.9187 14.3734H74.4699Z" fill="blue"/>
<path d="M85.2298 14.2636L77.1781 0.136612H82.6679L87.6087 9.65222H87.9015L92.9521 0.136612H98.1125L90.0974 14.2636V22.9009H85.2298V14.2636Z" fill="blue"/>
<path d="M104.041 4.16244H97.6733L99.9424 0.136612H115.314V4.16244H108.909V22.9009H104.041V4.16244Z" fill="blue"/>
<path d="M129.221 22.9009L124.829 15.3616H124.683H121.792V22.9009H116.924V0.136612H124.72C130.173 0.136612 133.32 2.95469 133.32 7.71249C133.32 11.0795 131.82 13.4585 129.038 14.593L134.565 22.9009H129.221ZM121.792 11.3357H124.61C126.915 11.3357 128.306 9.9816 128.306 7.71249C128.306 5.47998 126.915 4.16244 124.61 4.16244H121.792V11.3357Z" fill="blue"/>
</svg>
